<svg version="1" xmlns="http://www.w3.org/2000/svg" width="682.667" height="682.667" viewBox="0 0 512.000000 512.000000"><path d="M28.6 1.7C15.8 5.6 5.4 16.1 1.6 29 .2 33.8 0 56.7 0 256c0 200 .2 222.2 1.6 227.1 3.9 13.1 14.2 23.5 27.3 27.3 4.9 1.4 27.6 1.6 227.1 1.6s222.2-.2 227.1-1.6c13.1-3.8 23.4-14.2 27.3-27.3 1.4-4.9 1.6-27.1 1.6-227.1 0-199.5-.2-222.2-1.6-227.1-3.8-13.1-14.2-23.4-27.3-27.3C478.2.2 456.1 0 255.6.1 60.4.1 32.9.3 28.6 1.7zm282 76.3c38.3 7.8 61.3 23.8 72.3 50.3 8.3 20.1 8.4 48.8.1 69.8-7.1 18-18.9 34.8-37 53-10.6 10.7-24 21.3-29.2 23.2-.9.3-.6 1.2 1.3 3.3 6.8 7.4 15.6 22.9 17.9 31.4 3.1 11.4 2.9 26.7-.5 40.5-2.2 9-10.6 25-17.8 34.1-25.1 31.5-74.1 52.4-123 52.4-17.7 0-27.2-1.7-38.2-7-14.9-7.2-26-21.5-31.2-40-2.5-9.2-2.5-37.9 0-54.5 9.1-58.8 31.1-117.5 62.8-167.3 4.3-6.7 7.7-12.2 7.5-12.2-.2 0-3 1.6-6.2 3.6-5.7 3.4-6.2 3.5-13.9 3.2-6.7-.2-9.2-.9-14.7-3.6-8.3-4.1-16.9-11.8-19.8-17.7-2.6-5.3-2.8-11.7-.6-16.9 3.5-8.3 19.8-20.8 37.3-28.5 19.7-8.6 34.9-12.5 70.8-17.9 3.3-.5 16.4-1 29.1-1.1 19.6-.1 24.7.2 33 1.9z"/><path d="M270 126.1c-12.5 1.4-36.8 7.5-39.3 9.9-.5.4 1.4 1.5 4.1 2.4 14.8 5 28.7 17.8 30.7 28.6.8 4.3-.7 7.2-16.5 33-6.2 10.2-15.3 25.7-20.1 34.5l-8.9 16 3.4.3c1.8.2 6.9-.6 11.3-1.7 29.3-7.5 63-30.3 77.8-52.6 2.2-3.3 5.5-10.1 7.4-15 3.4-8.6 3.5-9.5 3.6-22.5 0-12.9-.1-13.7-2.7-18.1-5-8.6-13.4-13-27.9-14.9-9.3-1.1-12.1-1.1-22.9.1zM233.5 296c-2.7.4-11.1 2.4-18.5 4.3s-14.7 3.7-16.2 4.1c-3.1.7-4.3 2.9-9 17.1-6 18.5-8.1 29.8-8.2 45.2-.1 16.3.6 18 8.4 22 11.5 5.9 36-.3 54.1-13.8 28.5-21.1 38.7-54.3 21.7-70.6-7.2-6.9-20.4-10.3-32.3-8.3z"/></svg>